<svg width="175" height="172" viewBox="0 0 175 172" fill="none" xmlns="http://www.w3.org/2000/svg">
<rect width="175" height="172" rx="10" fill="#182B3D"/>
<path d="M88 50C83.451 50 79.0042 51.3783 75.2219 53.9605C71.4396 56.5427 68.4916 60.2129 66.7508 64.5069C65.01 68.801 64.5545 73.5261 65.4419 78.0846C66.3294 82.6432 68.5199 86.8305 71.7366 90.117C74.9532 93.4035 79.0514 95.6417 83.5129 96.5484C87.9745 97.4552 92.599 96.9898 96.8017 95.2112C101.004 93.4325 104.597 90.4204 107.124 86.5559C109.651 82.6913 111 78.1479 111 73.5C111 67.2674 108.577 61.2901 104.263 56.883C99.9501 52.4759 94.1 50 88 50ZM88 87.6C85.2706 87.6 82.6025 86.773 80.3331 85.2237C78.0637 83.6744 76.295 81.4723 75.2505 78.8958C74.206 76.3194 73.9327 73.4844 74.4652 70.7492C74.9976 68.0141 76.312 65.5017 78.2419 63.5298C80.1719 61.5579 82.6308 60.215 85.3078 59.6709C87.9847 59.1269 90.7594 59.4061 93.281 60.4733C95.8027 61.5405 97.9579 63.3477 99.4743 65.6665C100.991 67.9852 101.8 70.7113 101.8 73.5C101.796 77.2384 100.341 80.8226 97.754 83.4661C95.1668 86.1095 91.6589 87.5963 88 87.6Z" fill="white"/>
<g clip-path="url(#clip0_331_2096)">
<path d="M88 22C75.342 22 62.9683 25.7535 52.4435 32.7859C41.9188 39.8184 33.7157 49.8138 28.8717 61.5083C24.0277 73.2027 22.7603 86.071 25.2298 98.4858C27.6992 110.901 33.7946 122.304 42.7452 131.255C51.6957 140.205 63.0995 146.301 75.5142 148.77C87.929 151.24 100.797 149.972 112.492 145.128C124.186 140.284 134.182 132.081 141.214 121.556C148.246 111.032 152 98.658 152 86C151.981 69.0321 145.232 52.7647 133.233 40.7665C121.235 28.7684 104.968 22.0194 88 22ZM60.5715 133.438V127.143C60.5751 123.507 62.0211 120.021 64.5923 117.449C67.1634 114.878 70.6496 113.432 74.2857 113.429H101.714C105.35 113.432 108.837 114.878 111.408 117.449C113.979 120.021 115.425 123.507 115.429 127.143V133.438C107.105 138.298 97.639 140.859 88 140.859C78.3611 140.859 68.8953 138.298 60.5715 133.438ZM124.535 126.805C124.444 120.808 122.001 115.088 117.732 110.876C113.464 106.664 107.711 104.297 101.714 104.286H74.2857C68.2889 104.297 62.5364 106.664 58.2679 110.876C53.9993 115.088 51.5563 120.808 51.4652 126.805C43.1752 119.402 37.3291 109.657 34.701 98.8579C32.0729 88.0592 32.7868 76.717 36.7481 66.3331C40.7094 55.9491 47.7313 47.0133 56.884 40.7089C66.0367 34.4044 76.8884 31.0287 88.0023 31.0287C99.1162 31.0287 109.968 34.4044 119.121 40.7089C128.273 47.0133 135.295 55.9491 139.257 66.3331C143.218 76.717 143.932 88.0592 141.304 98.8579C138.676 109.657 132.829 119.402 124.539 126.805H124.535Z" fill="white"/>
</g>
<defs>
<clipPath id="clip0_331_2096">
<rect width="128" height="128" fill="white" transform="translate(24 22)"/>
</clipPath>
</defs>
</svg>
