<svg width="20" height="22" viewBox="0 0 20 22" fill="none" xmlns="http://www.w3.org/2000/svg">
<g clip-path="url(#clip0_333_3297)">
<path d="M8.26001 17.7601C3.79601 17.7601 0.200012 13.9321 0.200012 9.1801C0.200012 4.4281 3.79601 0.600098 8.26001 0.600098C12.724 0.600098 16.32 4.4281 16.32 9.1801C16.32 13.9321 12.724 17.7601 8.26001 17.7601ZM8.26001 1.9201C4.47801 1.9201 1.44001 5.1541 1.44001 9.1801C1.44001 13.2061 4.47801 16.4401 8.26001 16.4401C12.042 16.4401 15.08 13.2061 15.08 9.1801C15.08 5.1541 12.042 1.9201 8.26001 1.9201Z" fill="black"/>
<path d="M14.2628 14.6362L19.8304 20.563L18.9538 21.4963L13.3862 15.5695L14.2628 14.6362Z" fill="black"/>
</g>
<defs>
<clipPath id="clip0_333_3297">
<rect width="20" height="22" fill="white"/>
</clipPath>
</defs>
</svg>
