<svg width="35" height="35" viewBox="0 0 35 35" fill="none" xmlns="http://www.w3.org/2000/svg">
<path d="M17.6923 7.84619C16.4752 7.84619 15.2854 8.20711 14.2734 8.8833C13.2614 9.5595 12.4727 10.5206 12.0069 11.6451C11.5411 12.7695 11.4193 14.0069 11.6567 15.2006C11.8941 16.3943 12.4802 17.4908 13.3409 18.3515C14.2015 19.2121 15.298 19.7982 16.4917 20.0356C17.6855 20.2731 18.9228 20.1512 20.0473 19.6855C21.1717 19.2197 22.1328 18.4309 22.809 17.4189C23.4852 16.4069 23.8461 15.2172 23.8461 14C23.8461 12.3679 23.1978 10.8027 22.0437 9.64861C20.8897 8.49454 19.3244 7.84619 17.6923 7.84619ZM17.6923 17.6923C16.962 17.6923 16.2482 17.4758 15.641 17.0701C15.0338 16.6644 14.5605 16.0877 14.2811 15.413C14.0016 14.7383 13.9285 13.9959 14.0709 13.2797C14.2134 12.5635 14.5651 11.9056 15.0814 11.3892C15.5978 10.8728 16.2557 10.5211 16.972 10.3787C17.6882 10.2362 18.4306 10.3093 19.1053 10.5888C19.78 10.8683 20.3566 11.3415 20.7623 11.9487C21.1681 12.5559 21.3846 13.2698 21.3846 14C21.3836 14.979 20.9943 15.9176 20.3021 16.6098C19.6098 17.302 18.6713 17.6914 17.6923 17.6923Z" fill="black"/>
<path d="M17.6923 0.461426C14.2844 0.461426 10.953 1.47199 8.11942 3.36533C5.28584 5.25868 3.07733 7.94975 1.77317 11.0983C0.469014 14.2468 0.127787 17.7113 0.79264 21.0537C1.45749 24.3962 3.09856 27.4664 5.50833 29.8762C7.9181 32.286 10.9883 33.927 14.3308 34.5919C17.6732 35.2567 21.1377 34.9155 24.2863 33.6113C27.4348 32.3072 30.1258 30.0987 32.0192 27.2651C33.9125 24.4315 34.9231 21.1001 34.9231 17.6922C34.9179 13.1239 33.1008 8.74422 29.8706 5.51396C26.6403 2.28369 22.2606 0.466638 17.6923 0.461426ZM10.3077 30.4639V28.7691C10.3087 27.7902 10.698 26.8516 11.3902 26.1593C12.0825 25.4671 13.0211 25.0778 14 25.0768H21.3846C22.3636 25.0778 23.3022 25.4671 23.9944 26.1593C24.6866 26.8516 25.076 27.7902 25.0769 28.7691V30.4639C22.8359 31.7724 20.2874 32.462 17.6923 32.462C15.0972 32.462 12.5487 31.7724 10.3077 30.4639ZM27.5286 28.678C27.5041 27.0637 26.8464 25.5236 25.6971 24.3895C24.5479 23.2555 22.9992 22.6183 21.3846 22.6153H14C12.3855 22.6183 10.8367 23.2555 9.68751 24.3895C8.53828 25.5236 7.88055 27.0637 7.85602 28.678C5.6241 26.6851 4.05015 24.0613 3.34258 21.1539C2.63502 18.2466 2.82722 15.1929 3.89373 12.3973C4.96024 9.60158 6.85075 7.19579 9.31494 5.49843C11.7791 3.80108 14.7007 2.89223 17.6929 2.89223C20.6851 2.89223 23.6068 3.80108 26.0709 5.49843C28.5351 7.19579 30.4256 9.60158 31.4922 12.3973C32.5587 15.1929 32.7509 18.2466 32.0433 21.1539C31.3357 24.0613 29.7618 26.6851 27.5299 28.678H27.5286Z" fill="black"/>
</svg>
